<svg xmlns="http://www.w3.org/2000/svg" viewBox="0 0 24 24">
  <path d="M12 8.5A3.5 3.5 0 1 0 12 15.5A3.5 3.5 0 1 0 12 8.5Z" fill="none" stroke="#1AB7AF" stroke-width="1.9"/>
  <path d="M19 12a7.1 7.1 0 0 0-.1-1.1l2-1.5-2-3.4-2.4 1a7.3 7.3 0 0 0-1.9-1.1l-.4-2.5h-4l-.4 2.5A7.3 7.3 0 0 0 7.5 7l-2.4-1-2 3.4 2 1.5A7.1 7.1 0 0 0 5 12c0 .4 0 .7.1 1.1l-2 1.5 2 3.4 2.4-1a7.3 7.3 0 0 0 1.9 1.1l.4 2.5h4l.4-2.5a7.3 7.3 0 0 0 1.9-1.1l2.4 1 2-3.4-2-1.5c.1-.4.1-.7.1-1.1Z" fill="none" stroke="#6AC64A" stroke-linejoin="round" stroke-width="1.6"/>
</svg>
